<svg width="158" height="85" viewBox="0 0 158 85" fill="none" xmlns="http://www.w3.org/2000/svg">
<path d="M19.96 39.04H9.48L7.8 44H0.64L10.8 15.92H18.72L28.88 44H21.64L19.96 39.04ZM18.2 33.76L14.72 23.48L11.28 33.76H18.2ZM36.8122 25.4C37.6122 24.1733 38.6122 23.2133 39.8122 22.52C41.0122 21.8 42.3455 21.44 43.8122 21.44V28.68H41.9322C40.2255 28.68 38.9455 29.0533 38.0922 29.8C37.2389 30.52 36.8122 31.8 36.8122 33.64V44H29.9722V21.68H36.8122V25.4ZM48.5216 19.36C47.3216 19.36 46.3349 19.0133 45.5616 18.32C44.8149 17.6 44.4416 16.72 44.4416 15.68C44.4416 14.6133 44.8149 13.7333 45.5616 13.04C46.3349 12.32 47.3216 11.96 48.5216 11.96C49.6949 11.96 50.6549 12.32 51.4016 13.04C52.1749 13.7333 52.5616 14.6133 52.5616 15.68C52.5616 16.72 52.1749 17.6 51.4016 18.32C50.6549 19.0133 49.6949 19.36 48.5216 19.36ZM51.9216 21.68V44H45.0816V21.68H51.9216ZM66.0784 27.36H62.3984V44H55.5584V27.36H53.0784V21.68H55.5584V21.04C55.5584 18.2933 56.3451 16.2133 57.9184 14.8C59.4918 13.36 61.7984 12.64 64.8384 12.64C65.3451 12.64 65.7184 12.6533 65.9584 12.68V18.48C64.6518 18.4 63.7318 18.5867 63.1984 19.04C62.6651 19.4933 62.3984 20.3067 62.3984 21.48V21.68H66.0784V27.36Z" fill="#3F3BC4"/>
<path d="M87.1625 69H80.3225L68.8825 51.68V69H62.0425V40.92H68.8825L80.3225 58.32V40.92H87.1625V69ZM112.161 46.68V69H105.321V65.96C104.627 66.9467 103.681 67.7467 102.481 68.36C101.307 68.9467 100.001 69.24 98.5606 69.24C96.854 69.24 95.3473 68.8667 94.0406 68.12C92.734 67.3467 91.7206 66.24 91.0006 64.8C90.2806 63.36 89.9206 61.6667 89.9206 59.72V46.68H96.7206V58.8C96.7206 60.2933 97.1073 61.4533 97.8806 62.28C98.654 63.1067 99.694 63.52 101.001 63.52C102.334 63.52 103.387 63.1067 104.161 62.28C104.934 61.4533 105.321 60.2933 105.321 58.8V46.68H112.161ZM121.914 50.4C122.714 49.1733 123.714 48.2133 124.914 47.52C126.114 46.8 127.447 46.44 128.914 46.44V53.68H127.034C125.327 53.68 124.047 54.0533 123.194 54.8C122.34 55.52 121.914 56.8 121.914 58.64V69H115.074V46.68H121.914V50.4Z" fill="#3F3BC4"/>
</svg>
