<svg width="125" height="41" viewBox="0 0 125 41" fill="none" xmlns="http://www.w3.org/2000/svg">
<path d="M9.98 19.52H4.74L3.9 22H0.32L5.4 7.96H9.36L14.44 22H10.82L9.98 19.52ZM9.1 16.88L7.36 11.74L5.64 16.88H9.1ZM18.4061 12.7C18.8061 12.0867 19.3061 11.6067 19.9061 11.26C20.5061 10.9 21.1728 10.72 21.9061 10.72V14.34H20.9661C20.1128 14.34 19.4728 14.5267 19.0461 14.9C18.6194 15.26 18.4061 15.9 18.4061 16.82V22H14.9861V10.84H18.4061V12.7ZM24.2608 9.68C23.6608 9.68 23.1674 9.50667 22.7808 9.16C22.4074 8.8 22.2208 8.36 22.2208 7.84C22.2208 7.30667 22.4074 6.86667 22.7808 6.52C23.1674 6.16 23.6608 5.98 24.2608 5.98C24.8474 5.98 25.3274 6.16 25.7008 6.52C26.0874 6.86667 26.2808 7.30667 26.2808 7.84C26.2808 8.36 26.0874 8.8 25.7008 9.16C25.3274 9.50667 24.8474 9.68 24.2608 9.68ZM25.9608 10.84V22H22.5408V10.84H25.9608ZM33.0392 13.68H31.1992V22H27.7792V13.68H26.5392V10.84H27.7792V10.52C27.7792 9.14667 28.1726 8.10667 28.9592 7.4C29.7459 6.68 30.8992 6.32 32.4192 6.32C32.6726 6.32 32.8592 6.32667 32.9792 6.34V9.24C32.3259 9.2 31.8659 9.29333 31.5992 9.52C31.3326 9.74667 31.1992 10.1533 31.1992 10.74V10.84H33.0392V13.68Z" fill="#3F3BC4"/>
<path d="M39.8 33H36.38L30.66 24.34V33H27.24V18.96H30.66L36.38 27.66V18.96H39.8V33ZM52.2991 21.84V33H48.8791V31.48C48.5324 31.9733 48.0591 32.3733 47.4591 32.68C46.8724 32.9733 46.2191 33.12 45.4991 33.12C44.6457 33.12 43.8924 32.9333 43.2391 32.56C42.5857 32.1733 42.0791 31.62 41.7191 30.9C41.3591 30.18 41.1791 29.3333 41.1791 28.36V21.84H44.5791V27.9C44.5791 28.6467 44.7724 29.2267 45.1591 29.64C45.5457 30.0533 46.0657 30.26 46.7191 30.26C47.3857 30.26 47.9124 30.0533 48.2991 29.64C48.6857 29.2267 48.8791 28.6467 48.8791 27.9V21.84H52.2991ZM57.1756 23.7C57.5756 23.0867 58.0756 22.6067 58.6756 22.26C59.2756 21.9 59.9423 21.72 60.6756 21.72V25.34H59.7356C58.8823 25.34 58.2423 25.5267 57.8156 25.9C57.389 26.26 57.1756 26.9 57.1756 27.82V33H53.7556V21.84H57.1756V23.7Z" fill="#3F3BC4"/>
</svg>
